<?xml version="1.0" encoding="UTF-8" standalone="no"?><!DOCTYPE svg PUBLIC "-//W3C//DTD SVG 1.1//EN" "http://www.w3.org/Graphics/SVG/1.1/DTD/svg11.dtd"><svg width="100%" height="100%" viewBox="0 0 2000 2000" version="1.1" xmlns="http://www.w3.org/2000/svg" xmlns:xlink="http://www.w3.org/1999/xlink" xml:space="preserve" xmlns:serif="http://www.serif.com/" style="fill-rule:evenodd;clip-rule:evenodd;stroke-linejoin:round;stroke-miterlimit:2;"><path d="M2000,500l-0,1000c-0,275.958 -224.042,500 -500,500l-1000,-0c-275.958,-0 -500,-224.042 -500,-500l0,-1000c0,-275.958 224.042,-500 500,-500l1000,0c275.958,0 500,224.042 500,500Z" style="fill:#b8cfce;"/><g><g transform="matrix(1972.99,0,0,1972.99,1716.27,1561.09)"></g><text x="291.439px" y="1561.09px" style="font-family:'Arial-Black', 'Arial Black', sans-serif;font-weight:900;font-size:1972.99px;fill:#333446;">T</text><path d="M336.717,683.298l394.635,0l274.746,878.355l270.583,-878.355l382.98,0l-452.915,1220.54l-408.789,0l-461.24,-1220.54Z" style="fill:#7f8caa;fill-rule:nonzero;"/></g></svg>